<svg xmlns="http://www.w3.org/2000/svg" viewBox="0 0 1211 333" fill="#ffffff">
    <g id="Layer_2" data-name="Layer 2">
        <g id="Layer_1-2" data-name="Layer 1">
            <path d="M946.78,332.07A28.25,28.25,0,0,1,924,311c-2.73-11.59,1.1-23.42,11.16-29.83,16.53-10.53,33.53-20.33,50.37-30.37q44.55-26.53,89.12-53c.61-.36,1.61-.46,1.67-2H33.25c-15.91,0-27-7.94-30.65-21.81C-1.67,157.5,10.06,140.6,27,139c3.3-.33,6.65-.27,10-.27q517.13,0,1034.24,0h5.29c.11-.28.23-.55.34-.82-2.46-1.51-4.9-3.05-7.38-4.52l-131.11-78C927.65,49,922,39.64,923.43,27.14S932,6.46,944,2.85c8.09-2.42,15.81-1,23,3.25l106.71,63.39c40.15,23.84,80.25,47.78,120.52,71.41,8.51,5,13.63,12.06,16.63,21.09v10c-.92,10.22-6.94,17-15.31,21.9-25.51,15.05-50.91,30.28-76.38,45.39q-74.91,44.46-149.72,89.07c-4.24,2.52-8.61,4.33-13.65,4C952.82,332.2,949.78,332.71,946.78,332.07Z" />
        </g>
    </g>
</svg>