<svg xmlns="http://www.w3.org/2000/svg" viewBox="0 0 597 986">
    <g id="Layer_2" data-name="Layer 2">
        <g id="Layer_1-2" data-name="Layer 1">
            <path d="M273.54,899V33.12c0-4.65-.19-9.32,1.46-13.82,3.89-10.65,15-17.53,26-16.06A24.37,24.37,0,0,1,322.2,25.08c.27,2.81.25,5.66.25,8.49q0,429.12,0,858.26v6c2.3,0,3.18-1.58,4.31-2.59q110-98.13,219.92-196.34c5.27-4.71,10.59-9.17,18-9.94,11.14-1.14,20.34,3.9,24.89,13.63A24.43,24.43,0,0,1,584,731.38c-16.42,15.13-33,30.09-49.5,45.1Q426,875.14,317.51,973.83c-7.46,6.79-15.52,10.87-25.81,8-5.27-1.46-9.42-4.82-13.39-8.42L63.5,778.11c-17.38-15.8-34.81-31.54-52.08-47.45-7.65-7-9.43-17.8-5-27.54A23.34,23.34,0,0,1,29.55,689c6.91.49,12.62,3.73,17.72,8.28Q110.84,754,174.44,810.7l92.49,82.47C268.78,894.82,270.65,896.44,273.54,899Z" />
        </g>
    </g>
</svg>