<svg xmlns="http://www.w3.org/2000/svg" xmlns:xlink="http://www.w3.org/1999/xlink" width="334.218" height="86.437" viewBox="0 0 334.218 86.437">
  <defs>
    <linearGradient id="linear-gradient" x1="11.136" y1="0.5" x2="0.316" y2="0.5" gradientUnits="objectBoundingBox">
      <stop offset="0" stop-color="#757575"/>
      <stop offset="1"/>
    </linearGradient>
    <linearGradient id="linear-gradient-2" x1="8.469" y1="0.5" x2="-0.494" y2="0.5" xlink:href="#linear-gradient"/>
    <linearGradient id="linear-gradient-3" x1="8.921" y1="0.5" x2="-1.899" y2="0.5" xlink:href="#linear-gradient"/>
    <linearGradient id="linear-gradient-4" x1="8.972" y1="0.5" x2="-3.572" y2="0.5" xlink:href="#linear-gradient"/>
    <linearGradient id="linear-gradient-5" x1="6.304" y1="0.5" x2="-3.761" y2="0.5" xlink:href="#linear-gradient"/>
    <linearGradient id="linear-gradient-6" x1="3.514" y1="0.5" x2="-3.174" y2="0.5" xlink:href="#linear-gradient"/>
    <linearGradient id="linear-gradient-7" x1="3.396" y1="0.5" x2="-5.567" y2="0.5" xlink:href="#linear-gradient"/>
    <linearGradient id="linear-gradient-8" x1="2.529" y1="0.5" x2="-7.536" y2="0.5" xlink:href="#linear-gradient"/>
    <linearGradient id="linear-gradient-9" x1="1.738" y1="0.5" x2="-10.807" y2="0.5" xlink:href="#linear-gradient"/>
  </defs>
  <g id="그룹_7" data-name="그룹 7" transform="translate(-130.529 -393.667)">
    <g id="그룹_3" data-name="그룹 3">
      <g id="그룹_1" data-name="그룹 1">
        <path id="패스_1" data-name="패스 1" d="M167.452,403.166a21.445,21.445,0,0,1-8.109,1.98c-.553.035-1.118.057-1.7.057a22.4,22.4,0,0,1-9.794-2.037,8.317,8.317,0,0,1-3.605-3.067v23.569h.118c.023,1.65,1.367,3.223,3.793,4.426a24.012,24.012,0,0,0,18.934,0c2.427-1.2,3.77-2.776,3.794-4.426h.09V400.275A8.639,8.639,0,0,1,167.452,403.166Z" fill="#370767"/>
      </g>
      <g id="그룹_2" data-name="그룹 2">
        <path id="패스_2" data-name="패스 2" d="M167.452,425.685a21.427,21.427,0,0,1-8.109,1.981c-.553.035-1.118.055-1.7.055a22.359,22.359,0,0,1-9.794-2.036,8.28,8.28,0,0,1-3.6-3.068v23.568h.116c.024,1.653,1.367,3.223,3.793,4.428a24,24,0,0,0,18.934,0c2.426-1.205,3.769-2.775,3.793-4.428h.091V422.791A8.611,8.611,0,0,1,167.452,425.685Z" fill="#95b600"/>
      </g>
    </g>
    <g id="그룹_6" data-name="그룹 6">
      <g id="그룹_4" data-name="그룹 4">
        <path id="패스_3" data-name="패스 3" d="M130.635,434.172c.27,1.48,1.584,2.871,3.77,3.965a21.768,21.768,0,0,0,9.522,1.97c.582,0,1.149-.021,1.707-.054a20.985,20.985,0,0,0,7.832-1.916c2.187-1.094,3.519-2.485,3.79-3.965.015-.092.028-.186.038-.277a2.9,2.9,0,0,0,.016-.295c0-.04,0-.084,0-.123-.065-1.649-1.435-3.209-3.84-4.412a20.927,20.927,0,0,0-7.832-1.917c-.558-.037-1.125-.056-1.707-.056a21.753,21.753,0,0,0-9.522,1.973c-2.4,1.2-3.755,2.763-3.819,4.412,0,.039,0,.083,0,.123,0,.1.005.2.013.295S130.619,434.08,130.635,434.172Z" fill="#5a9932"/>
      </g>
      <g id="그룹_5" data-name="그룹 5">
        <path id="패스_4" data-name="패스 4" d="M153.731,437.053a21.412,21.412,0,0,1-8.107,1.98c-.553.037-1.119.057-1.7.057a22.377,22.377,0,0,1-9.795-2.037,8.3,8.3,0,0,1-3.6-3.067v23.569h.116c.024,1.65,1.369,3.22,3.794,4.425a24,24,0,0,0,18.933,0c2.427-1.205,3.771-2.775,3.793-4.425h.092V434.16A8.618,8.618,0,0,1,153.731,437.053Z" fill="#1da3d5"/>
      </g>
    </g>
  </g>
  <g id="그룹_8" data-name="그룹 8" transform="translate(-130.529 -393.667)">
    <path id="패스_5" data-name="패스 5" d="M144.3,400.749c.269,1.481,1.585,2.872,3.771,3.965a21.778,21.778,0,0,0,9.522,1.971c.582,0,1.149-.019,1.705-.055a20.948,20.948,0,0,0,7.835-1.916c2.187-1.093,3.52-2.484,3.789-3.965.017-.091.03-.185.038-.279a2.377,2.377,0,0,0,.016-.293c0-.041,0-.082,0-.125-.067-1.646-1.436-3.211-3.841-4.41a20.909,20.909,0,0,0-7.835-1.916c-.556-.037-1.123-.059-1.705-.059a21.764,21.764,0,0,0-9.522,1.975c-2.407,1.2-3.756,2.764-3.821,4.41,0,.043,0,.084,0,.125a2.847,2.847,0,0,0,.015.293C144.27,400.564,144.283,400.658,144.3,400.749Z" fill="#7c5a8b"/>
  </g>
  <g id="그룹_9" data-name="그룹 9" transform="translate(-130.529 -393.667)">
    <path id="패스_6" data-name="패스 6" d="M180.461,414.535a21.475,21.475,0,0,1-8.11,1.98c-.553.035-1.118.055-1.7.055a22.406,22.406,0,0,1-9.795-2.035,8.319,8.319,0,0,1-3.6-3.067v23.567h.116c.023,1.653,1.369,3.223,3.792,4.428a24.042,24.042,0,0,0,18.937,0c2.425-1.205,3.77-2.775,3.792-4.428h.092V411.642A8.649,8.649,0,0,1,180.461,414.535Z" fill="#e1a100"/>
  </g>
  <g id="그룹_10" data-name="그룹 10" transform="translate(-130.529 -393.667)">
    <path id="패스_7" data-name="패스 7" d="M157.306,412.117c.27,1.48,1.587,2.871,3.772,3.966a21.768,21.768,0,0,0,9.523,1.969c.582,0,1.15-.019,1.705-.054a20.967,20.967,0,0,0,7.836-1.915c2.187-1.1,3.52-2.486,3.789-3.966a2.621,2.621,0,0,0,.039-.28,2.8,2.8,0,0,0,.015-.293c0-.041,0-.082,0-.123-.065-1.648-1.433-3.211-3.839-4.412a20.873,20.873,0,0,0-7.836-1.916c-.555-.037-1.123-.058-1.705-.058a21.752,21.752,0,0,0-9.523,1.974c-2.4,1.2-3.755,2.764-3.821,4.412,0,.041,0,.082,0,.123,0,.1,0,.2.012.293S157.291,412.025,157.306,412.117Z" fill="#ffce00"/>
  </g>
  <g id="그룹_12" data-name="그룹 12" transform="translate(-130.529 -393.667)">
    <g id="그룹_11" data-name="그룹 11">
      <path id="패스_8" data-name="패스 8" d="M180.461,437.053a21.437,21.437,0,0,1-8.11,1.98c-.553.037-1.118.057-1.7.057a22.376,22.376,0,0,1-9.794-2.037,8.3,8.3,0,0,1-3.6-3.067v23.569h.117c.023,1.65,1.368,3.22,3.791,4.425a24.006,24.006,0,0,0,18.936,0c2.425-1.205,3.77-2.775,3.792-4.425h.092V434.16A8.618,8.618,0,0,1,180.461,437.053Z" fill="#d2500c"/>
    </g>
  </g>
  <!-- <g id="그룹_14" data-name="그룹 14" transform="translate(-130.529 -393.667)">
    <g id="그룹_13" data-name="그룹 13">
      <path id="패스_9" data-name="패스 9" d="M246.394,468.525h3.075c1.931,0,3.521.683,3.521,2.851,0,2.085-1.613,3-3.463,3H248.5v2.909h-2.109Zm3.027,4.194c1.025,0,1.519-.484,1.519-1.343,0-.884-.564-1.191-1.578-1.191H248.5v2.534Z" fill="#5d5d5d"/>
      <path id="패스_10" data-name="패스 10" d="M254.03,470.586h1.708l.141,1.167h.048a2.287,2.287,0,0,1,1.908-1.331,1.882,1.882,0,0,1,.812.141l-.353,1.8a2.759,2.759,0,0,0-.73-.106,1.635,1.635,0,0,0-1.449,1.2v3.828H254.03Z" fill="#5d5d5d"/>
      <path id="패스_11" data-name="패스 11" d="M258.685,473.943a3.288,3.288,0,1,1,3.287,3.511A3.3,3.3,0,0,1,258.685,473.943Zm4.418,0c0-1.119-.354-1.825-1.131-1.825s-1.143.706-1.143,1.825.354,1.815,1.143,1.815S263.1,475.051,263.1,473.943Z" fill="#5d5d5d"/>
      <path id="패스_12" data-name="패스 12" d="M265.895,473.943a3.394,3.394,0,0,1,3.523-3.521,2.9,2.9,0,0,1,1.956.718l-.979,1.342a1.278,1.278,0,0,0-.859-.364c-.919,0-1.5.706-1.5,1.825s.6,1.815,1.425,1.815a1.917,1.917,0,0,0,1.167-.472l.8,1.379a3.345,3.345,0,0,1-2.2.789A3.241,3.241,0,0,1,265.895,473.943Z" fill="#5d5d5d"/>
      <path id="패스_13" data-name="패스 13" d="M271.54,473.943a3.3,3.3,0,0,1,3.18-3.521c1.932,0,2.875,1.4,2.875,3.239a3.823,3.823,0,0,1-.1.9h-3.935a1.533,1.533,0,0,0,1.673,1.295,2.724,2.724,0,0,0,1.414-.424l.695,1.261a4.338,4.338,0,0,1-2.4.765A3.274,3.274,0,0,1,271.54,473.943Zm4.275-.753c0-.671-.294-1.167-1.059-1.167a1.241,1.241,0,0,0-1.226,1.167Z" fill="#5d5d5d"/>
      <path id="패스_14" data-name="패스 14" d="M278.067,476.512,279,475.2a2.843,2.843,0,0,0,1.7.707c.554,0,.79-.2.79-.53,0-.4-.648-.589-1.331-.86-.8-.318-1.744-.86-1.744-1.967,0-1.273,1.037-2.132,2.592-2.132a3.9,3.9,0,0,1,2.4.859l-.942,1.249a2.572,2.572,0,0,0-1.391-.565c-.47,0-.706.165-.706.482,0,.4.613.554,1.308.8.836.317,1.767.8,1.767,2.014,0,1.237-.966,2.191-2.793,2.191A4.311,4.311,0,0,1,278.067,476.512Z" fill="#5d5d5d"/>
      <path id="패스_15" data-name="패스 15" d="M283.782,476.512l.931-1.308a2.843,2.843,0,0,0,1.7.707c.554,0,.79-.2.79-.53,0-.4-.648-.589-1.331-.86-.8-.318-1.744-.86-1.744-1.967,0-1.273,1.037-2.132,2.592-2.132a3.9,3.9,0,0,1,2.4.859l-.942,1.249a2.575,2.575,0,0,0-1.391-.565c-.471,0-.706.165-.706.482,0,.4.612.554,1.308.8.836.317,1.766.8,1.766,2.014,0,1.237-.965,2.191-2.792,2.191A4.31,4.31,0,0,1,283.782,476.512Z" fill="#5d5d5d"/>
      <path id="패스_16" data-name="패스 16" d="M292.644,468.525h2.273l1.391,3.782c.176.506.318,1.059.482,1.6h.06c.176-.542.317-1.1.482-1.6l1.343-3.782h2.285v8.764h-1.92v-3a29.087,29.087,0,0,1,.271-3.039h-.046l-.731,2.1-1.179,3.2H296.2l-1.189-3.2-.707-2.1h-.047a29.085,29.085,0,0,1,.27,3.039v3h-1.884Z" fill="#5d5d5d"/>
      <path id="패스_17" data-name="패스 17" d="M302.224,475.416c0-1.413,1.107-2.18,3.722-2.462-.048-.542-.33-.86-1.013-.86a3.682,3.682,0,0,0-1.755.59l-.731-1.379a5.568,5.568,0,0,1,2.886-.883c1.732,0,2.71.966,2.71,3.062v3.8h-1.708l-.153-.672h-.047a2.866,2.866,0,0,1-1.921.837A1.935,1.935,0,0,1,302.224,475.416Zm3.722-.118v-1.071c-1.307.176-1.732.553-1.732,1.024,0,.389.283.577.719.577A1.319,1.319,0,0,0,305.946,475.3Z" fill="#5d5d5d"/>
      <path id="패스_18" data-name="패스 18" d="M309.364,470.586h1.708l.141.837h.048a3.028,3.028,0,0,1,2.143-1c1.461,0,2.085,1.048,2.085,2.721v4.146h-2.1V473.4c0-.919-.248-1.189-.778-1.189a1.6,1.6,0,0,0-1.166.6v4.476h-2.085Z" fill="#5d5d5d"/>
      <path id="패스_19" data-name="패스 19" d="M316.529,475.416c0-1.413,1.108-2.18,3.723-2.462-.048-.542-.33-.86-1.014-.86a3.682,3.682,0,0,0-1.755.59l-.73-1.379a5.568,5.568,0,0,1,2.886-.883c1.732,0,2.71.966,2.71,3.062v3.8h-1.708l-.154-.672h-.047a2.862,2.862,0,0,1-1.92.837A1.936,1.936,0,0,1,316.529,475.416Zm3.723-.118v-1.071c-1.308.176-1.732.553-1.732,1.024,0,.389.283.577.718.577A1.321,1.321,0,0,0,320.252,475.3Z" fill="#5d5d5d"/>
      <path id="패스_20" data-name="패스 20" d="M323.257,478.42a1.485,1.485,0,0,1,.954-1.319v-.059a1.3,1.3,0,0,1-.612-1.154,1.614,1.614,0,0,1,.742-1.249v-.047a2.148,2.148,0,0,1-.907-1.733,2.514,2.514,0,0,1,2.8-2.437,3.292,3.292,0,0,1,1.061.164h2.462v1.519h-1.037a1.772,1.772,0,0,1,.188.814c0,1.566-1.189,2.25-2.674,2.25a2.965,2.965,0,0,1-.789-.118.545.545,0,0,0-.212.471c0,.306.271.448.99.448h1.06c1.649,0,2.579.507,2.579,1.72,0,1.413-1.46,2.414-3.793,2.414C324.529,480.1,323.257,479.621,323.257,478.42Zm4.606-.365c0-.4-.353-.483-.977-.483h-.637a3.578,3.578,0,0,1-.954-.083.791.791,0,0,0-.318.6c0,.471.565.707,1.425.707S327.863,478.478,327.863,478.055Zm-.777-5.2c0-.682-.354-1.036-.849-1.036s-.847.354-.847,1.036.365,1.049.847,1.049S327.086,473.555,327.086,472.859Z" fill="#5d5d5d"/>
      <path id="패스_21" data-name="패스 21" d="M330,473.943a3.3,3.3,0,0,1,3.181-3.521c1.932,0,2.875,1.4,2.875,3.239a3.823,3.823,0,0,1-.1.9h-3.935a1.533,1.533,0,0,0,1.673,1.295,2.723,2.723,0,0,0,1.414-.424l.7,1.261a4.338,4.338,0,0,1-2.4.765A3.275,3.275,0,0,1,330,473.943Zm4.276-.753c0-.671-.294-1.167-1.059-1.167a1.241,1.241,0,0,0-1.226,1.167Z" fill="#5d5d5d"/>
      <path id="패스_22" data-name="패스 22" d="M337.1,470.586h1.708l.141.849H339a2.764,2.764,0,0,1,2.037-1.013,1.839,1.839,0,0,1,1.838,1.106,2.928,2.928,0,0,1,2.1-1.106c1.461,0,2.1,1.048,2.1,2.721v4.146h-2.1V473.4c0-.919-.236-1.189-.766-1.189a1.618,1.618,0,0,0-1.072.6v4.476h-2.109V473.4c0-.919-.235-1.189-.765-1.189a1.615,1.615,0,0,0-1.071.6v4.476H337.1Z" fill="#5d5d5d"/>
      <path id="패스_23" data-name="패스 23" d="M348.038,473.943a3.3,3.3,0,0,1,3.18-3.521c1.932,0,2.875,1.4,2.875,3.239a3.821,3.821,0,0,1-.1.9h-3.934a1.532,1.532,0,0,0,1.672,1.295,2.723,2.723,0,0,0,1.414-.424l.7,1.261a4.338,4.338,0,0,1-2.4.765A3.274,3.274,0,0,1,348.038,473.943Zm4.276-.753c0-.671-.294-1.167-1.06-1.167a1.241,1.241,0,0,0-1.226,1.167Z" fill="#5d5d5d"/>
      <path id="패스_24" data-name="패스 24" d="M355.142,470.586h1.709l.14.837h.048a3.03,3.03,0,0,1,2.144-1c1.461,0,2.085,1.048,2.085,2.721v4.146h-2.1V473.4c0-.919-.247-1.189-.777-1.189a1.6,1.6,0,0,0-1.166.6v4.476h-2.086Z" fill="#5d5d5d"/>
      <path id="패스_25" data-name="패스 25" d="M362.873,474.8v-2.58h-.907v-1.555l1.025-.083.236-1.767h1.743v1.767h1.578v1.638H364.97v2.556c0,.742.353,1.036.848,1.036a2.367,2.367,0,0,0,.613-.117l.33,1.508a4.94,4.94,0,0,1-1.52.247C363.557,477.454,362.873,476.394,362.873,474.8Z" fill="#5d5d5d"/>
      <path id="패스_26" data-name="패스 26" d="M369.565,476.193l1.19-1.449a3.542,3.542,0,0,0,2.132.9c.777,0,1.142-.294,1.142-.766,0-.507-.482-.671-1.236-.989l-1.119-.472a2.565,2.565,0,0,1-1.779-2.4c0-1.473,1.319-2.651,3.18-2.651a4.079,4.079,0,0,1,2.851,1.155l-1.048,1.319a2.844,2.844,0,0,0-1.8-.672c-.647,0-1.049.26-1.049.731s.554.672,1.332.977l1.1.437a2.422,2.422,0,0,1,1.733,2.4c0,1.461-1.226,2.745-3.346,2.745A4.9,4.9,0,0,1,369.565,476.193Z" fill="#5d5d5d"/>
      <path id="패스_27" data-name="패스 27" d="M377.036,479.739l.377-1.59a2.286,2.286,0,0,0,.447.082,1.072,1.072,0,0,0,1.119-.8l.094-.342-2.567-6.5h2.108l.9,2.78c.2.612.342,1.237.518,1.9h.059c.13-.636.282-1.26.435-1.9l.778-2.78h1.991l-2.3,6.715c-.66,1.72-1.379,2.568-2.969,2.568A3.259,3.259,0,0,1,377.036,479.739Z" fill="#5d5d5d"/>
      <path id="패스_28" data-name="패스 28" d="M383.434,476.512l.93-1.308a2.845,2.845,0,0,0,1.7.707c.553,0,.79-.2.79-.53,0-.4-.649-.589-1.332-.86-.8-.318-1.744-.86-1.744-1.967,0-1.273,1.038-2.132,2.592-2.132a3.9,3.9,0,0,1,2.4.859l-.942,1.249a2.572,2.572,0,0,0-1.39-.565c-.471,0-.707.165-.707.482,0,.4.613.554,1.308.8.836.317,1.767.8,1.767,2.014,0,1.237-.966,2.191-2.792,2.191A4.306,4.306,0,0,1,383.434,476.512Z" fill="#5d5d5d"/>
      <path id="패스_29" data-name="패스 29" d="M389.726,474.8v-2.58h-.908v-1.555l1.026-.083.235-1.767h1.743v1.767H393.4v1.638h-1.578v2.556c0,.742.354,1.036.849,1.036a2.359,2.359,0,0,0,.612-.117l.33,1.508a4.935,4.935,0,0,1-1.52.247C390.409,477.454,389.726,476.394,389.726,474.8Z" fill="#5d5d5d"/>
      <path id="패스_30" data-name="패스 30" d="M393.769,473.943a3.3,3.3,0,0,1,3.179-3.521c1.933,0,2.875,1.4,2.875,3.239a3.823,3.823,0,0,1-.1.9h-3.934a1.532,1.532,0,0,0,1.673,1.295,2.729,2.729,0,0,0,1.414-.424l.694,1.261a4.333,4.333,0,0,1-2.4.765A3.274,3.274,0,0,1,393.769,473.943Zm4.275-.753c0-.671-.294-1.167-1.06-1.167a1.24,1.24,0,0,0-1.225,1.167Z" fill="#5d5d5d"/>
      <path id="패스_31" data-name="패스 31" d="M400.872,470.586h1.709l.141.849h.048a2.761,2.761,0,0,1,2.037-1.013,1.839,1.839,0,0,1,1.838,1.106,2.928,2.928,0,0,1,2.1-1.106c1.461,0,2.1,1.048,2.1,2.721v4.146h-2.1V473.4c0-.919-.235-1.189-.765-1.189a1.622,1.622,0,0,0-1.073.6v4.476H404.8V473.4c0-.919-.235-1.189-.766-1.189a1.617,1.617,0,0,0-1.071.6v4.476h-2.086Z" fill="#5d5d5d"/>
    </g>
  </g> -->
  <g id="그룹_15" data-name="그룹 15" transform="translate(-130.529 -393.667)">
    <path id="패스_32" data-name="패스 32" d="M197.645,425.963h11.812c7.423,0,13.532,2.625,13.532,10.953,0,8.01-6.2,11.541-13.3,11.541h-3.938v11.178h-8.1Zm11.631,16.113c3.938,0,5.838-1.855,5.838-5.16,0-3.394-2.172-4.57-6.064-4.57h-3.3v9.73Z" fill="url(#linear-gradient)"/>
    <path id="패스_33" data-name="패스 33" d="M240.916,451.9H230.96l-1.946,7.738h-8.238l10.455-33.672h9.685l10.455,33.672h-8.509Zm-1.538-6.247-.725-2.851c-.9-3.348-1.764-7.377-2.67-10.817H235.8c-.815,3.532-1.72,7.469-2.579,10.817l-.725,2.851Z" fill="url(#linear-gradient-2)"/>
    <path id="패스_34" data-name="패스 34" d="M253.773,425.963h11.812c7.423,0,13.532,2.625,13.532,10.953,0,8.01-6.2,11.541-13.306,11.541h-3.937v11.178h-8.1ZM265.4,442.076c3.938,0,5.838-1.855,5.838-5.16,0-3.394-2.172-4.57-6.064-4.57h-3.3v9.73Z" fill="url(#linear-gradient-3)"/>
    <path id="패스_35" data-name="패스 35" d="M283.738,425.963H305.1v6.7H291.839v6.246h11.269V445.7H291.839v7.151H305.6v6.789h-21.86Z" fill="url(#linear-gradient-4)"/>
    <path id="패스_36" data-name="패스 36" d="M328.316,459.635l-6.2-11.858h-3.892v11.858h-8.1V425.963h12.355c7.2,0,13.169,2.445,13.169,10.592,0,4.931-2.307,8.1-5.793,9.73l7.514,13.35ZM318.224,441.4h3.621c3.846,0,5.883-1.674,5.883-4.842s-2.037-4.209-5.883-4.209h-3.621Z" fill="url(#linear-gradient-5)"/>
    <path id="패스_37" data-name="패스 37" d="M337.78,425.963h8.283l2.127,15.344,1.357,10.679h.181c.633-3.574,1.313-7.2,1.992-10.679l3.439-15.344h6.788l3.531,15.344c.678,3.439,1.267,7.058,1.946,10.679h.226c.408-3.621.86-7.2,1.267-10.679l2.173-15.344h7.693l-5.838,33.672H362.763l-3.033-14.662c-.544-2.58-1-5.3-1.312-7.83h-.227c-.407,2.533-.814,5.25-1.312,7.83l-2.941,14.662h-10Z" fill="url(#linear-gradient-6)"/>
    <path id="패스_38" data-name="패스 38" d="M398.114,451.9h-9.956l-1.946,7.738h-8.237l10.455-33.672h9.684l10.455,33.672h-8.508Zm-1.538-6.247-.724-2.851c-.906-3.348-1.765-7.377-2.67-10.817H393c-.814,3.532-1.72,7.469-2.579,10.817l-.725,2.851Z" fill="url(#linear-gradient-7)"/>
    <path id="패스_39" data-name="패스 39" d="M430.165,459.635l-6.2-11.858h-3.893v11.858h-8.1V425.963h12.354c7.2,0,13.17,2.445,13.17,10.592,0,4.931-2.307,8.1-5.793,9.73l7.513,13.35ZM420.072,441.4h3.621c3.847,0,5.883-1.674,5.883-4.842s-2.036-4.209-5.883-4.209h-3.621Z" fill="url(#linear-gradient-8)"/>
    <path id="패스_40" data-name="패스 40" d="M442.888,425.963h21.361v6.7H450.988v6.246h11.27V445.7h-11.27v7.151h13.759v6.789H442.888Z" fill="url(#linear-gradient-9)"/>
  </g>
</svg>
