<svg xmlns="http://www.w3.org/2000/svg" viewBox="0 0 53.46 70.26"><g id="Layer_2" data-name="Layer 2"><g id="Layer_1-2" data-name="Layer 1"><g id="그룹_7" data-name="그룹 7"><g id="그룹_3" data-name="그룹 3"><g id="그룹_1" data-name="그룹 1"><path id="패스_1" data-name="패스 1" d="M36.92,9.5a21.26,21.26,0,0,1-8.11,2c-.55,0-1.11.06-1.7.06a22.36,22.36,0,0,1-9.79-2,8.33,8.33,0,0,1-3.61-3.06V30h.12c0,1.65,1.37,3.22,3.8,4.42a24,24,0,0,0,18.93,0c2.43-1.2,3.77-2.77,3.79-4.42h.09V6.61A8.62,8.62,0,0,1,36.92,9.5Z" fill="#370767"/></g><g id="그룹_2" data-name="그룹 2"><path id="패스_2" data-name="패스 2" d="M36.92,32a21.26,21.26,0,0,1-8.11,2c-.55,0-1.11.06-1.7.06a22.36,22.36,0,0,1-9.79-2A8.26,8.26,0,0,1,13.72,29V52.52h.12c0,1.66,1.36,3.23,3.79,4.43a24,24,0,0,0,18.93,0c2.43-1.2,3.77-2.77,3.8-4.43h.09V29.13A8.65,8.65,0,0,1,36.92,32Z" fill="#95b600"/></g></g><g id="그룹_6" data-name="그룹 6"><g id="그룹_4" data-name="그룹 4"><path id="패스_3" data-name="패스 3" d="M.11,40.51c.27,1.48,1.58,2.87,3.77,4a21.69,21.69,0,0,0,9.52,2c.58,0,1.15,0,1.7,0a21.11,21.11,0,0,0,7.84-1.92c2.18-1.09,3.52-2.48,3.79-4l0-.28a1.42,1.42,0,0,0,0-.29v-.13c-.06-1.64-1.43-3.2-3.84-4.41a20.81,20.81,0,0,0-7.83-1.91q-.84-.06-1.71-.06a21.69,21.69,0,0,0-9.52,2C1.48,36.6.12,38.17.06,39.81v.13c0,.1,0,.2,0,.29A2.36,2.36,0,0,0,.11,40.51Z" fill="#5a9932"/></g><g id="그룹_5" data-name="그룹 5"><path id="패스_4" data-name="패스 4" d="M23.2,43.39a21.25,21.25,0,0,1-8.1,2c-.56,0-1.12.06-1.7.06a22.37,22.37,0,0,1-9.8-2A8.32,8.32,0,0,1,0,40.32V63.89H.12c0,1.65,1.37,3.22,3.79,4.43a24,24,0,0,0,18.93,0c2.43-1.21,3.77-2.78,3.8-4.43h.09V40.5A8.65,8.65,0,0,1,23.2,43.39Z" fill="#1da3d5"/></g></g></g><g id="그룹_8" data-name="그룹 8"><path id="패스_5" data-name="패스 5" d="M13.77,7.09c.27,1.48,1.59,2.87,3.77,4a21.72,21.72,0,0,0,9.52,2c.59,0,1.15,0,1.71,0a21,21,0,0,0,7.83-1.92c2.19-1.09,3.52-2.48,3.79-4a2.7,2.7,0,0,0,0-.28c0-.1,0-.2,0-.3V6.39C40.38,4.74,39,3.18,36.61,2A21.11,21.11,0,0,0,28.77.06C28.21,0,27.65,0,27.07,0a21.89,21.89,0,0,0-9.53,2c-2.4,1.2-3.75,2.76-3.82,4.41v.12c0,.1,0,.2,0,.3A1.33,1.33,0,0,0,13.77,7.09Z" fill="#7c5a8b"/></g><g id="그룹_9" data-name="그룹 9"><path id="패스_6" data-name="패스 6" d="M49.93,20.87a21.3,21.3,0,0,1-8.11,2c-.55,0-1.12.06-1.7.06a22.36,22.36,0,0,1-9.79-2,8.37,8.37,0,0,1-3.6-3.06V41.37h.11c0,1.66,1.37,3.23,3.79,4.43a24.06,24.06,0,0,0,18.94,0C52,44.6,53.34,43,53.36,41.37h.1V18A8.71,8.71,0,0,1,49.93,20.87Z" fill="#e1a100"/></g><g id="그룹_10" data-name="그룹 10"><path id="패스_7" data-name="패스 7" d="M26.78,18.45c.27,1.48,1.58,2.88,3.77,4a21.69,21.69,0,0,0,9.52,2c.58,0,1.15,0,1.71-.05a21,21,0,0,0,7.83-1.92c2.19-1.1,3.52-2.49,3.79-4a2.36,2.36,0,0,0,0-.28,2.64,2.64,0,0,0,0-.29v-.12c-.07-1.65-1.44-3.21-3.84-4.41a20.73,20.73,0,0,0-7.84-1.92c-.55,0-1.12-.06-1.7-.06a21.75,21.75,0,0,0-9.53,2c-2.4,1.2-3.75,2.76-3.82,4.41v.12a2.71,2.71,0,0,0,0,.29C26.76,18.27,26.76,18.36,26.78,18.45Z" fill="#ffce00"/></g><g id="그룹_12" data-name="그룹 12"><g id="그룹_11" data-name="그룹 11"><path id="패스_8" data-name="패스 8" d="M49.93,43.39a21.3,21.3,0,0,1-8.11,2c-.55,0-1.12.06-1.7.06a22.36,22.36,0,0,1-9.79-2,8.32,8.32,0,0,1-3.6-3.07V63.89h.11c0,1.65,1.37,3.22,3.8,4.43a24,24,0,0,0,18.93,0c2.43-1.21,3.77-2.78,3.79-4.43h.1V40.5A8.65,8.65,0,0,1,49.93,43.39Z" fill="#d2500c"/></g></g></g></g></svg>